<svg xmlns="http://www.w3.org/2000/svg" xmlns:xlink="http://www.w3.org/1999/xlink" width="500" zoomAndPan="magnify" viewBox="0 0 375 374.999991" height="500" preserveAspectRatio="xMidYMid meet" version="1.0"><defs><clipPath id="1390831e35"><path d="M 0.0390625 0.878906 L 138.039062 0.878906 L 138.039062 238.480469 L 0.0390625 238.480469 Z M 0.0390625 0.878906 " clip-rule="nonzero"/></clipPath><clipPath id="f6e42381f7"><rect x="0" width="139" y="0" height="239"/></clipPath></defs><path stroke-linecap="round" transform="matrix(0.53033, -0.53033, 0.53033, 0.53033, 19.30946, 191.303558)" fill="none" stroke-linejoin="miter" d="M 12.998572 13.000702 L 136.491832 13.000702 " stroke="#000000" stroke-width="26" stroke-opacity="1" stroke-miterlimit="4"/><path stroke-linecap="round" transform="matrix(-0.53033, -0.53033, 0.53033, -0.53033, 98.191887, 273.671701)" fill="none" stroke-linejoin="miter" d="M 13.000743 12.999837 L 136.486638 12.999837 " stroke="#000000" stroke-width="26" stroke-opacity="1" stroke-miterlimit="4"/><g transform="matrix(1, 0, 0, 1, 95, 68)"><g clip-path="url(#f6e42381f7)"><g clip-path="url(#1390831e35)"><path stroke-linecap="round" transform="matrix(-0.777829, 0.777829, -0.777829, -0.777829, 136.997007, 121.763934)" fill="none" stroke-linejoin="miter" d="M 13.0011 12.998926 L 136.489366 13.001437 " stroke="#000000" stroke-width="26" stroke-opacity="1" stroke-miterlimit="4"/><path stroke-linecap="round" transform="matrix(0.777829, 0.777829, -0.777829, 0.777829, 21.301091, 0.955523)" fill="none" stroke-linejoin="miter" d="M 13.000196 13.000594 L 136.490973 13.000594 " stroke="#000000" stroke-width="26" stroke-opacity="1" stroke-miterlimit="4"/></g></g></g><path stroke-linecap="round" transform="matrix(-0.53033, 0.53033, -0.53033, -0.53033, 288.573413, 189.035803)" fill="none" stroke-linejoin="miter" d="M 12.999084 13.000303 L 136.492345 13.000303 " stroke="#000000" stroke-width="26" stroke-opacity="1" stroke-miterlimit="4"/><path stroke-linecap="round" transform="matrix(0.53033, 0.53033, -0.53033, 0.53033, 209.690981, 106.667659)" fill="none" stroke-linejoin="miter" d="M 13.001146 13.000344 L 136.487041 13.000344 " stroke="#000000" stroke-width="26" stroke-opacity="1" stroke-miterlimit="4"/><path stroke-linecap="round" transform="matrix(-0.53033, 0.53033, -0.53033, -0.53033, 345.846104, 189.035803)" fill="none" stroke-linejoin="miter" d="M 12.998381 12.9996 L 136.491641 12.9996 " stroke="#000000" stroke-width="26" stroke-opacity="1" stroke-miterlimit="4"/><path stroke-linecap="round" transform="matrix(0.53033, 0.53033, -0.53033, 0.53033, 266.963687, 106.667659)" fill="none" stroke-linejoin="miter" d="M 13.001836 12.999655 L 136.487731 12.999655 " stroke="#000000" stroke-width="26" stroke-opacity="1" stroke-miterlimit="4"/><path stroke-linecap="round" transform="matrix(0.75, 0, 0, 0.75, 212.528472, 176.257592)" fill="none" stroke-linejoin="miter" d="M 12.998496 13.000295 L 178.404757 13.000295 " stroke="#000000" stroke-width="26" stroke-opacity="1" stroke-miterlimit="4"/></svg>