<svg xmlns="http://www.w3.org/2000/svg" xmlns:xlink="http://www.w3.org/1999/xlink" width="500" zoomAndPan="magnify" viewBox="0 0 375 374.999991" height="500" preserveAspectRatio="xMidYMid meet" version="1.0"><defs><clipPath id="fee3445ed6"><path d="M 187.5 0 C 83.945312 0 0 83.945312 0 187.5 C 0 291.054688 83.945312 375 187.5 375 C 291.054688 375 375 291.054688 375 187.5 C 375 83.945312 291.054688 0 187.5 0 Z M 187.5 0 " clip-rule="nonzero"/></clipPath><clipPath id="9cd78bb6bf"><path d="M 0 0 L 375 0 L 375 375 L 0 375 Z M 0 0 " clip-rule="nonzero"/></clipPath><clipPath id="529777fb54"><path d="M 187.5 0 C 83.945312 0 0 83.945312 0 187.5 C 0 291.054688 83.945312 375 187.5 375 C 291.054688 375 375 291.054688 375 187.5 C 375 83.945312 291.054688 0 187.5 0 Z M 187.5 0 " clip-rule="nonzero"/></clipPath><clipPath id="c088fa9793"><rect x="0" width="375" y="0" height="375"/></clipPath></defs><g clip-path="url(#fee3445ed6)"><g transform="matrix(1, 0, 0, 1, 0, 0)"><g clip-path="url(#c088fa9793)"><g clip-path="url(#9cd78bb6bf)"><g clip-path="url(#529777fb54)"><rect x="-82.5" width="540" fill="#0045b5" height="539.999987" y="-82.499998" fill-opacity="1"/></g></g></g></g></g><path stroke-linecap="round" transform="matrix(0.53033, -0.53033, 0.53033, 0.53033, 19.30946, 191.303558)" fill="none" stroke-linejoin="miter" d="M 12.998572 13.000702 L 136.491832 13.000702 " stroke="#9ac3ff" stroke-width="26" stroke-opacity="1" stroke-miterlimit="4"/><path stroke-linecap="round" transform="matrix(-0.53033, -0.53033, 0.53033, -0.53033, 98.191887, 273.671701)" fill="none" stroke-linejoin="miter" d="M 13.000743 12.999837 L 136.486638 12.999837 " stroke="#9ac3ff" stroke-width="26" stroke-opacity="1" stroke-miterlimit="4"/><path stroke-linecap="round" transform="matrix(-0.53033, 0.53033, -0.53033, -0.53033, 231.961703, 189.731239)" fill="none" stroke-linejoin="miter" d="M 18.999809 19.001261 L 200.254858 19.001261 " stroke="#9ac3ff" stroke-width="38" stroke-opacity="1" stroke-miterlimit="4"/><path stroke-linecap="round" transform="matrix(0.53033, 0.53033, -0.53033, 0.53033, 116.264176, 68.993873)" fill="none" stroke-linejoin="miter" d="M 18.99959 18.996858 L 200.254639 18.996858 " stroke="#9ac3ff" stroke-width="38" stroke-opacity="1" stroke-miterlimit="4"/><path stroke-linecap="round" transform="matrix(-0.53033, 0.53033, -0.53033, -0.53033, 288.57353, 189.046027)" fill="none" stroke-linejoin="miter" d="M 13.000604 12.999005 L 136.490182 13.002688 " stroke="#9ac3ff" stroke-width="26" stroke-opacity="1" stroke-miterlimit="4"/><path stroke-linecap="round" transform="matrix(0.53033, 0.53033, -0.53033, 0.53033, 209.691084, 106.677891)" fill="none" stroke-linejoin="miter" d="M 12.998768 12.998161 L 136.488346 13.001844 " stroke="#9ac3ff" stroke-width="26" stroke-opacity="1" stroke-miterlimit="4"/><path stroke-linecap="round" transform="matrix(-0.53033, 0.53033, -0.53033, -0.53033, 345.846222, 189.046027)" fill="none" stroke-linejoin="miter" d="M 12.999901 12.998301 L 136.489479 13.001984 " stroke="#9ac3ff" stroke-width="26" stroke-opacity="1" stroke-miterlimit="4"/><path stroke-linecap="round" transform="matrix(0.53033, 0.53033, -0.53033, 0.53033, 266.963836, 106.677891)" fill="none" stroke-linejoin="miter" d="M 12.999415 12.997515 L 136.488993 13.001197 " stroke="#9ac3ff" stroke-width="26" stroke-opacity="1" stroke-miterlimit="4"/><path stroke-linecap="round" transform="matrix(0.75, 0, 0, 0.75, 212.528472, 176.257592)" fill="none" stroke-linejoin="miter" d="M 12.998496 13.000295 L 178.404757 13.000295 " stroke="#9ac3ff" stroke-width="26" stroke-opacity="1" stroke-miterlimit="4"/></svg>